<svg viewBox="0 0 200 100" xmlns="http://www.w3.org/2000/svg">
	<rect fill="#FFFFFF" stroke="#000000" id="back" stroke-width="2" width="196" height="96" x="2" y="2" />
	<circle fill="#000000" id="h1-r1-c1" cx="20" cy="20" r="10" />
	<circle fill="#000000" id="h1-r1-c2" cx="20" cy="50" r="10" />
	<circle fill="#000000" id="h1-r1-c3" cx="20" cy="80" r="10" />
	<circle fill="#000000" id="h1-r2-c1" cx="50" cy="20" r="10" />
	<circle fill="#000000" id="h1-r2-c2" cx="50" cy="50" r="10" />
	<circle fill="#000000" id="h1-r2-c3" cx="50" cy="80" r="10" />
	<circle fill="#000000" id="h1-r3-c1" cx="80" cy="20" r="10" />
	<circle fill="#000000" id="h1-r3-c2" cx="80" cy="50" r="10" />
	<circle fill="#000000" id="h1-r3-c3" cx="80" cy="80" r="10" />
	<rect fill="#000000" id="divider" width="6" height="80" x="97" y="10" rx="3" ry="3" />
	<circle fill="#000000" id="h2-r1-c1" cx="120" cy="20" r="10" />
	<circle fill="#000000" id="h2-r1-c2" cx="120" cy="50" r="10" />
	<circle fill="#000000" id="h2-r1-c3" cx="120" cy="80" r="10" />
	<circle fill="#000000" id="h2-r2-c1" cx="150" cy="20" r="10" />
	<circle fill="#000000" id="h2-r2-c2" cx="150" cy="50" r="10" />
	<circle fill="#000000" id="h2-r2-c3" cx="150" cy="80" r="10" />
	<circle fill="#000000" id="h2-r3-c1" cx="180" cy="20" r="10" />
	<circle fill="#000000" id="h2-r3-c2" cx="180" cy="50" r="10" />
	<circle fill="#000000" id="h2-r3-c3" cx="180" cy="80" r="10" />
</svg>