<svg viewBox="0 0 100 200" xmlns="http://www.w3.org/2000/svg">
	<rect fill="#FFFFFF" stroke="#000000" id="back" stroke-width="2" width="96" height="196" x="2" y="2"  />
	<circle fill="#000000" id="h1-r1-c3" cx="20" cy="20" r="10" />
	<circle fill="#000000" id="h1-r1-c2" cx="50" cy="20" r="10" />
	<circle fill="#000000" id="h1-r1-c1" cx="80" cy="20" r="10" />
	<circle fill="#000000" id="h1-r2-c1" cx="20" cy="50" r="10" />
	<circle fill="#000000" id="h1-r2-c2" cx="50" cy="50" r="10" />
	<circle fill="#000000" id="h1-r2-c3" cx="80" cy="50" r="10" />
	<circle fill="#000000" id="h1-r3-c3" cx="20" cy="80" r="10" />
	<circle fill="#000000" id="h1-r3-c2" cx="50" cy="80" r="10" />
	<circle fill="#000000" id="h1-r3-c1" cx="80" cy="80" r="10" />
	<rect fill="#000000" id="divider" width="80" height="6" x="10" y="97" ry="3" />
	<circle fill="#000000" id="h2-r1-c3" cx="20" cy="120" r="10" />
	<circle fill="#000000" id="h2-r1-c2" cx="50" cy="120" r="10" />
	<circle fill="#000000" id="h2-r1-c1" cx="80" cy="120" r="10" />
	<circle fill="#000000" id="h2-r2-c1" cx="20" cy="150" r="10" />
	<circle fill="#000000" id="h2-r2-c2" cx="50" cy="150" r="10" />
	<circle fill="#000000" id="h2-r2-c3" cx="80" cy="150" r="10" />
	<circle fill="#000000" id="h2-r3-c3" cx="20" cy="180" r="10" />
	<circle fill="#000000" id="h2-r3-c2" cx="50" cy="180" r="10" />
	<circle fill="#000000" id="h2-r3-c1" cx="80" cy="180" r="10" />
</svg>