<svg xmlns="http://www.w3.org/2000/svg" viewBox="0 0 74 95">
<rect fill="#ffffff" x="1" y="1" width="73" height="93" rx="5"/>
  <g transform="translate(-761.45174,-446.13767)">
    <path fill="#000000" stroke="none" transform="translate(699.2002,459.11001)" d="m 136.95154,74.927657 c -8e-5,4.799983 -2.26674,7.19998 -6.8,7.2 l -61.1,0 c -4.533338,-2e-5 -6.800003,-2.400017 -6.8,-7.2 l 0,-80.7000004 c -3e-6,-4.7999266 2.266662,-7.1999236 6.8,-7.1999996 l 61.1,0 c 4.53326,7.6e-5 6.79992,2.400073 6.8,7.1999996 l 0,80.7000004 m -1.7,0 0,-80.7000004 c -8e-5,-3.6665942 -1.70007,-5.4999256 -5.1,-5.4999996 l -61.1,0 c -3.400006,7.4e-5 -5.100004,1.8334054 -5.1,5.4999996 l 0,80.7000004 c -4e-6,3.733317 1.699994,5.599982 5.1,5.6 l 61.1,0 c 3.39993,-1.8e-5 5.09992,-1.866683 5.1,-5.6" />    
    <path fill="#006c00" stroke="none" transform="translate(597.67987,464.86839)" d="m 225.67187,25.01928 c -1.66673,-0.133301 -3.33339,-0.199968 -5,-0.2 -1.66672,3.2e-5 -3.33339,0.0667 -5,0.2 l 0,-0.8 -0.8,0.6 -13.8,-19.9000001 -13.7,19.9000001 -0.8,-0.6 0,0.8 c -1.66669,-0.133301 -3.33335,-0.199968 -5,-0.2 -1.66668,3.2e-5 -3.33335,0.0667 -5,0.2 0.13332,-5.599963 0.19999,-11.166624 0.2,-16.7000001 -1e-5,-5.5332793 -0.0667,-11.0666071 -0.2,-16.6000004 1.66665,0.1333987 3.33332,0.2000653 5,0.2 1.66665,6.53e-5 3.33331,-0.066601 5,-0.2 -0.13336,5.7333931 -0.20002,11.5667206 -0.2,17.5000004 l 11.9,-17.4000004 c 0.86663,0.733398 1.79996,1.4667305 2.8,2.1999999 1.06663,-0.7332694 2.03329,-1.4666019 2.9,-2.1999999 l 11.9,17.4000004 c -5e-5,-6.1332796 -0.0667,-11.9666071 -0.2,-17.5000004 1.66661,0.1333987 3.33328,0.2000653 5,0.2 1.66661,6.53e-5 3.33327,-0.066601 5,-0.2 -0.1334,5.5333933 -0.20006,11.0667211 -0.2,16.6000004 -6e-5,5.5333761 0.0666,11.1000371 0.2,16.7000001 m 0,40.9 c -1.66673,-0.133342 -3.33339,-0.200009 -5,-0.2 -1.66672,-9e-6 -3.33339,0.06666 -5,0.2 0.13328,-5.800003 0.19995,-11.633331 0.2,-17.5 l -11.9,17.3 -2.9,-2.2 -2.8,2.2 -11.9,-17.3 c -2e-5,6.066669 0.0666,11.899996 0.2,17.5 -1.66669,-0.133342 -3.33335,-0.200009 -5,-0.2 -1.66668,-9e-6 -3.33335,0.06666 -5,0.2 0.13332,-5.533337 0.19999,-11.066665 0.2,-16.6 -1e-5,-5.599987 -0.0667,-11.166648 -0.2,-16.7 1.66665,0.133357 3.33332,0.200024 5,0.2 1.66665,2.4e-5 3.33331,-0.06664 5,-0.2 l 0,0.8 0.8,-0.7 13.7,20 c 4.59996,-6.333323 9.19995,-12.999983 13.8,-20 l 0.8,0.7 0,-0.8 c 1.66661,0.133357 3.33328,0.200024 5,0.2 1.66661,2.4e-5 3.33327,-0.06664 5,-0.2 -0.1334,5.533352 -0.20006,11.100013 -0.2,16.7 -6e-5,5.533335 0.0666,11.066663 0.2,16.6 m -2,-72.1000006 c -1.00006,6.34e-5 -2.00006,6.34e-5 -3,0 l -3,0 c 0.0666,4.0000595 0.0999,7.9000556 0.1,11.7000005 l 5.7,0 c -6e-5,-3.7999449 0.0666,-7.699941 0.2,-11.7000005 m -0.2,15.5000005 0,-2 -5.7,0 0,2 5.7,0 m -18.8,-12.8000004 -1.2,-1.8000001 -0.6,0.5000001 1.8,1.3 m 19,26.4000005 c -0.1334,-4.133295 -0.20006,-8.033291 -0.2,-11.7 l -5.7,0 c -6e-5,3.000043 -0.0334,6.900039 -0.1,11.7 0.99994,-0.06663 1.99994,-0.09997 3,-0.1 l 3,0.1 m -13.6,-18.5000001 -4.2,-6.1000004 -3.6,4.9 3.2,4.4000004 4.6,-3.2 m 2.2,3.1 -1.1,-1.6 -4.6,3.3 1.1,1.6000001 4.6,-3.3000001 m 3.6,5.0000001 -2.5,-3.5000001 -4.6,3.3000001 6.6,9.6 0.3,-0.2 0.2,-9.2 m -12.3,-14.4000005 c -1.66671,-1.0666065 -3.2667,-2.1999387 -4.8,-3.4000001 l -6.6,9.7000005 4.6,3.2 6.8,-9.5000004 m -7.9,11.1000004 -4.6,-3.3 -1.1,1.6 4.6,3.3000001 1.1,-1.6000001 m -11.1,-15.4000005 c -1.00002,6.34e-5 -2.00002,6.34e-5 -3,0 l -3,0 c 0.13332,4.0000595 0.19999,7.9000556 0.2,11.7000005 l 5.6,0 c -2e-5,-3.7999449 0.0666,-7.699941 0.2,-11.7000005 m 39.1,40.9000006 c -1.00006,0.06669 -2.00006,0.100022 -3,0.1 l -3,-0.1 c 0.0666,4.266684 0.0999,8.166681 0.1,11.7 l 5.7,0 c -6e-5,-3.733319 0.0666,-7.633315 0.2,-11.7 m -30.2,-22.4 -4.6,-3.3000001 -2.5,3.5000001 c -2e-5,1.26671 0.0333,4.333373 0.1,9.2 l 0.4,0.2 6.6,-9.6 m -9.1,-3.0000001 0,-2 -5.6,0 0,2 5.6,0 m 39.1,40.9000001 0,-1.9 -5.7,0 0,1.9 5.7,0 m -7.6,-5.2 c -5e-5,-1.266654 -0.0667,-4.299984 -0.2,-9.1 l -0.3,-0.3 -6.6,9.7 4.6,3.3 2.5,-3.6 m -31.3,-22.1 c -0.13335,-4.266629 -0.20002,-8.166625 -0.2,-11.7 l -5.6,0 c -1e-5,3.666709 -0.0667,7.566705 -0.2,11.7 0.99998,-0.06663 1.99998,-0.09997 3,-0.1 l 3,0.1 m 39.1,40.9 c -0.1334,-4.06667 -0.20006,-7.966666 -0.2,-11.7 l -5.7,0 c -6e-5,3.733334 -0.0334,7.63333 -0.1,11.7 0.99994,-0.06667 1.99994,-0.100007 3,-0.1 l 3,0.1 m -11.4,-13.7 -4.6,-3.3 -1.1,1.6 4.6,3.3 1.1,-1.6 m -2.2,3.1 -4.6,-3.3 -6.8,9.5 c 1.66663,1.13333 3.26663,2.299995 4.8,3.5 l 6.6,-9.7 m -16.6,-7.9 -6.6,-9.7 -0.4,0.3 -0.1,9.1 2.5,3.6 4.6,-3.3 m 2.2,3.1 -1.1,-1.6 -4.6,3.3 1.1,1.6 4.6,-3.3 m 4.3,6 -3.2,-4.5 -4.6,3.3 4.2,6.1 3.6,-4.9 m -15.4,-19.7 c -1.00002,0.06669 -2.00002,0.100022 -3,0.1 l -3,-0.1 c 0.13332,4.066685 0.19999,7.966681 0.2,11.7 l 5.6,0 c -2e-5,-2.999987 0.0666,-6.899983 0.2,-11.7 m 14.8,27.6 c -0.53337,-0.400005 -1.13337,-0.800005 -1.8,-1.2 l 1.2,1.8 0.6,-0.6 m -15,-12.1 0,-1.9 -5.6,0 0,1.9 5.6,0 m 0.2,13.6 c -0.13335,-4.06667 -0.20002,-7.966666 -0.2,-11.7 l -5.6,0 c -1e-5,3.733334 -0.0667,7.63333 -0.2,11.7 0.99998,-0.06667 1.99998,-0.100007 3,-0.1 l 3,0.1" />
  </g>
</svg>