<svg xmlns="http://www.w3.org/2000/svg" viewBox="0 0 74 95">
	<rect fill="#ffffff" x="1" y="1" width="73" height="93" rx="5"/>
  <g transform="translate(-562.82783,-478.74125)">
    <path fill="#000000" stroke="none" transform="translate(541.74001,515.70472)" d="m 95.787822,50.936533 c -7.7e-5,4.799984 -2.266741,7.199981 -6.8,7.2 l -61.1,0 c -4.533338,-1.9e-5 -6.800002,-2.400016 -6.8,-7.2 l 0,-80.7 c -2e-6,-4.799926 2.266662,-7.199924 6.8,-7.2 l 61.1,0 c 4.533259,7.6e-5 6.799923,2.400074 6.8,7.2 l 0,80.7 m -1.7,0 0,-80.7 c -7.5e-5,-3.666594 -1.700073,-5.499925 -5.1,-5.5 l -61.1,0 c -3.400005,7.5e-5 -5.100004,1.833406 -5.1,5.5 l 0,80.7 c -4e-6,3.733318 1.699995,5.599983 5.1,5.6 l 61.1,0 c 3.399927,-1.7e-5 5.099925,-1.866682 5.1,-5.6" />
  </g>
  <g transform="translate(-650.7111,-477.98364)">
    
    <path fill="#9c0000" stroke="none" transform="translate(540.22478,517.97756)" d="m 152.78632,24.206075 c -1.66671,-0.133321 -3.33337,-0.199988 -5,-0.2 -1.6667,1.2e-5 -3.30003,0.06668 -4.9,0.2 0.1333,-5.599982 0.19997,-11.166643 0.2,-16.6999996 -3e-5,-5.5332989 -0.0667,-11.0666268 -0.2,-16.5999996 1.66663,0.1333783 3.29996,0.2000449 4.9,0.2 1.66663,4.49e-5 3.33329,-0.066622 5,-0.2 -0.13338,5.5333728 -0.20004,11.0667007 -0.2,16.5999996 -4e-5,5.6000226 0.0666,11.1666836 0.2,16.6999996 m -2,-31.1999992 c -1.00004,4.3e-5 -2.00004,4.3e-5 -3,0 -0.93337,4.3e-5 -1.90003,4.3e-5 -2.9,0 0.0666,4.0000389 0.1,7.90003506 0.1,11.7 l 5.7,0 c -4e-5,-3.79996494 0.0333,-7.6999611 0.1,-11.7 m -0.1,15.4999996 0,-1.9999996 -5.7,0 0,1.9999996 5.7,0 m 0.1,13.5999996 c -0.0667,-4.266648 -0.10004,-8.166644 -0.1,-11.7 l -5.7,0 c -3e-5,3.666689 -0.0334,7.566685 -0.1,11.7 0.99997,-0.06665 1.96663,-0.09999 2.9,-0.1 0.99996,1.4e-5 1.99996,0.03335 3,0.1" />
  </g>
  <g>
    <path fill="#006c00" stroke="none" transform="translate(-747.68574,-478.74125)" d="m 809.58574,563.39125 c -1.66673,-0.13334 -3.33339,-0.20001 -5,-0.2 -1.66672,-10e-6 -3.30005,0.0667 -4.9,0.2 0.13328,-5.6 0.19995,-11.16667 0.2,-16.7 -5e-5,-5.53332 -0.0667,-11.06665 -0.2,-16.6 1.66661,0.13336 3.29994,0.20002 4.9,0.2 1.66661,2e-5 3.33327,-0.0666 5,-0.2 -0.1334,5.53335 -0.20006,11.06668 -0.2,16.6 -6e-5,5.6 0.0666,11.16666 0.2,16.7 m -2,-31.2 c -1.00006,2e-5 -2.00006,2e-5 -3,0 -0.93339,2e-5 -1.90006,2e-5 -2.9,0 0.0666,4.00002 0.0999,7.90001 0.1,11.7 l 5.7,0 c -6e-5,-3.79999 0.0333,-7.69998 0.1,-11.7 m -0.1,15.5 0,-2 -5.7,0 0,2 5.7,0 m 0.1,13.6 c -0.0667,-4.26667 -0.10006,-8.16667 -0.1,-11.7 l -5.7,0 c -5e-5,3.66667 -0.0334,7.56666 -0.1,11.7 0.99994,-0.0667 1.96661,-0.10001 2.9,-0.1 0.99994,-10e-6 1.99994,0.0333 3,0.1 m 2,-38.8 c -1.66673,-0.1333 -3.33339,-0.19997 -5,-0.2 -1.66672,3e-5 -3.30005,0.0667 -4.9,0.2 0.13328,-5.59996 0.19995,-11.16662 0.2,-16.7 -5e-5,-5.53328 -0.0667,-11.06661 -0.2,-16.6 1.66661,0.1334 3.29994,0.20006 4.9,0.2 1.66661,6e-5 3.33327,-0.0666 5,-0.2 -0.1334,5.53339 -0.20006,11.06672 -0.2,16.6 -6e-5,5.60004 0.0666,11.1667 0.2,16.7 m -2,-31.2 c -1.00006,6e-5 -2.00006,6e-5 -3,0 -0.93339,6e-5 -1.90006,6e-5 -2.9,0 0.0666,4.00006 0.0999,7.90005 0.1,11.7 l 5.7,0 c -6e-5,-3.79995 0.0333,-7.69994 0.1,-11.7 m -0.1,15.5 0,-2 -5.7,0 0,2 5.7,0 m 0.1,13.6 c -0.0667,-4.26663 -0.10006,-8.16663 -0.1,-11.7 l -5.7,0 c -5e-5,3.66671 -0.0334,7.5667 -0.1,11.7 0.99994,-0.0666 1.96661,-0.1 2.9,-0.1 0.99994,3e-5 1.99994,0.0334 3,0.1 m -37.2,43 c -1.66669,-0.13334 -3.33335,-0.20001 -5,-0.2 -1.66668,-10e-6 -3.30001,0.0667 -4.9,0.2 0.13332,-5.6 0.19999,-11.16667 0.2,-16.7 -10e-6,-5.53332 -0.0667,-11.06665 -0.2,-16.6 1.66665,0.13336 3.29998,0.20002 4.9,0.2 1.66665,2e-5 3.33331,-0.0666 5,-0.2 -0.13336,5.53335 -0.20002,11.06668 -0.2,16.6 -2e-5,5.6 0.0666,11.16666 0.2,16.7 m -2,-31.2 c -1.00002,2e-5 -2.00002,2e-5 -3,0 -0.93335,2e-5 -1.90002,2e-5 -2.9,0 0.0667,4.00002 0.1,7.90001 0.1,11.7 l 5.7,0 c -2e-5,-3.79999 0.0333,-7.69998 0.1,-11.7 m -0.1,15.5 0,-2 -5.7,0 0,2 5.7,0 m 0.1,13.6 c -0.0667,-4.26667 -0.10002,-8.16667 -0.1,-11.7 l -5.7,0 c -2e-5,3.66667 -0.0334,7.56666 -0.1,11.7 0.99998,-0.0667 1.96665,-0.10001 2.9,-0.1 0.99998,-10e-6 1.99998,0.0333 3,0.1 m 2,-38.8 c -1.66669,-0.1333 -3.33335,-0.19997 -5,-0.2 -1.66668,3e-5 -3.30001,0.0667 -4.9,0.2 0.13332,-5.59996 0.19999,-11.16662 0.2,-16.7 -10e-6,-5.53328 -0.0667,-11.06661 -0.2,-16.6 1.66665,0.1334 3.29998,0.20006 4.9,0.2 1.66665,6e-5 3.33331,-0.0666 5,-0.2 -0.13336,5.53339 -0.20002,11.06672 -0.2,16.6 -2e-5,5.60004 0.0666,11.1667 0.2,16.7 m -2,-31.2 c -1.00002,6e-5 -2.00002,6e-5 -3,0 -0.93335,6e-5 -1.90002,6e-5 -2.9,0 0.0667,4.00006 0.1,7.90005 0.1,11.7 l 5.7,0 c -2e-5,-3.79995 0.0333,-7.69994 0.1,-11.7 m -0.1,15.5 0,-2 -5.7,0 0,2 5.7,0 m 0.1,13.6 c -0.0667,-4.26663 -0.10002,-8.16663 -0.1,-11.7 l -5.7,0 c -2e-5,3.66671 -0.0334,7.5667 -0.1,11.7 0.99998,-0.0666 1.96665,-0.1 2.9,-0.1 0.99998,3e-5 1.99998,0.0334 3,0.1" />
  </g>
</svg>