<svg xmlns="http://www.w3.org/2000/svg" viewBox="0 0 74 95">
  <rect fill="#ffffff" x="1" y="1" width="73" height="93" rx="5"/>
  <g transform="translate(-415.72348,-514.94711)">>
    <path fill="#000000" stroke="none" transform="translate(386.80698,546.35474)" d="m 103.6165,56.492373 c -7e-5,4.799983 -2.26674,7.199981 -6.799996,7.2 l -61.1,0 c -4.533338,-1.9e-5 -6.800002,-2.400017 -6.8,-7.2 l 0,-80.7 c -2e-6,-4.799927 2.266662,-7.199924 6.8,-7.2 l 61.1,0 c 4.533256,7.6e-5 6.799926,2.400073 6.799996,7.2 l 0,80.7 m -1.7,0 0,-80.7 c -7e-5,-3.666594 -1.70007,-5.499926 -5.099996,-5.5 l -61.1,0 c -3.400006,7.4e-5 -5.100004,1.833406 -5.1,5.5 l 0,80.7 c -4e-6,3.733318 1.699994,5.599982 5.1,5.6 l 61.1,0 c 3.399926,-1.8e-5 5.099926,-1.866682 5.099996,-5.6" />
  </g>
  <g transform="translate(-541.74001,-515.70472)">
    <path fill="#006c00" stroke="none" transform="translate(386.80698,546.35474)" d="m 216.83303,53.999979 c -1.66673,-0.133342 -3.33339,-0.200009 -5,-0.2 -1.66672,-9e-6 -3.30005,0.06666 -4.9,0.2 0.13328,-5.600003 0.19995,-11.166664 0.2,-16.7 -5e-5,-5.53332 -0.0667,-11.066648 -0.2,-16.6 1.66661,0.133358 3.29995,0.200024 4.9,0.2 1.66661,2.4e-5 3.33327,-0.06664 5,-0.2 -0.13339,5.533352 -0.20006,11.06668 -0.2,16.6 -6e-5,5.600002 0.0666,11.166663 0.2,16.7 m -2,-31.2 c -1.00006,2.2e-5 -2.00006,2.2e-5 -3,0 -0.93339,2.2e-5 -1.90005,2.2e-5 -2.9,0 0.0666,4.000018 0.0999,7.900014 0.1,11.7 l 5.7,0 c -6e-5,-3.799986 0.0333,-7.699982 0.1,-11.7 m -0.1,15.5 0,-2 -5.7,0 0,2 5.7,0 m 0.1,13.6 c -0.0667,-4.266669 -0.10006,-8.166665 -0.1,-11.7 l -5.7,0 c -5e-5,3.666668 -0.0334,7.566664 -0.1,11.7 0.99995,-0.06667 1.96661,-0.100007 2.9,-0.1 0.99994,-7e-6 1.99994,0.03333 3,0.1 m 2,-38.8 c -1.66673,-0.133301 -3.33339,-0.199968 -5,-0.2 -1.66672,3.2e-5 -3.30005,0.0667 -4.9,0.2 0.13328,-5.5999621 0.19995,-11.1666232 0.2,-16.6999999 -5e-5,-5.5332789 -0.0667,-11.0666071 -0.2,-16.6000001 1.66661,0.133399 3.29995,0.200065 4.9,0.2 1.66661,6.5e-5 3.33327,-0.0666 5,-0.2 -0.13339,5.533393 -0.20006,11.0667212 -0.2,16.6000001 -6e-5,5.6000433 0.0666,11.1667044 0.2,16.6999999 m -2,-31.2 c -1.00006,6.3e-5 -2.00006,6.3e-5 -3,0 -0.93339,6.3e-5 -1.90005,6.3e-5 -2.9,0 0.0666,4.000059 0.0999,7.900055 0.1,11.7000001 l 5.7,0 c -6e-5,-3.7999451 0.0333,-7.6999411 0.1,-11.7000001 m -0.1,15.5000001 0,-2 -5.7,0 0,2 5.7,0 m 0.1,13.5999999 c -0.0667,-4.266628 -0.10006,-8.1666241 -0.1,-11.69999986 l -5.7,0 c -5e-5,3.66670896 -0.0334,7.56670506 -0.1,11.69999986 0.99995,-0.06663 1.96661,-0.09997 2.9,-0.1 0.99994,3.4e-5 1.99994,0.03337 3,0.1 m -37.2,43 c -1.66669,-0.133342 -3.33335,-0.200009 -5,-0.2 -1.66668,-9e-6 -3.30001,0.06666 -4.9,0.2 0.13332,-5.600003 0.19999,-11.166664 0.2,-16.7 -1e-5,-5.53332 -0.0667,-11.066648 -0.2,-16.6 1.66665,0.133358 3.29999,0.200024 4.9,0.2 1.66665,2.4e-5 3.33331,-0.06664 5,-0.2 -0.13335,5.533352 -0.20002,11.06668 -0.2,16.6 -2e-5,5.600002 0.0666,11.166663 0.2,16.7 m -2,-31.2 c -1.00002,2.2e-5 -2.00002,2.2e-5 -3,0 -0.93335,2.2e-5 -1.90001,2.2e-5 -2.9,0 0.0667,4.000018 0.1,7.900014 0.1,11.7 l 5.7,0 c -2e-5,-3.799986 0.0333,-7.699982 0.1,-11.7 m -0.1,15.5 0,-2 -5.7,0 0,2 5.7,0 m 0.1,13.6 c -0.0667,-4.266669 -0.10002,-8.166665 -0.1,-11.7 l -5.7,0 c -1e-5,3.666668 -0.0333,7.566664 -0.1,11.7 0.99999,-0.06667 1.96665,-0.100007 2.9,-0.1 0.99998,-7e-6 1.99998,0.03333 3,0.1 m 2,-38.8 c -1.66669,-0.133301 -3.33335,-0.199968 -5,-0.2 -1.66668,3.2e-5 -3.30001,0.0667 -4.9,0.2 0.13332,-5.5999621 0.19999,-11.1666232 0.2,-16.6999999 -1e-5,-5.5332789 -0.0667,-11.0666071 -0.2,-16.6000001 1.66665,0.133399 3.29999,0.200065 4.9,0.2 1.66665,6.5e-5 3.33331,-0.0666 5,-0.2 -0.13335,5.533393 -0.20002,11.0667212 -0.2,16.6000001 -2e-5,5.6000433 0.0666,11.1667044 0.2,16.6999999 m -2,-31.2 c -1.00002,6.3e-5 -2.00002,6.3e-5 -3,0 -0.93335,6.3e-5 -1.90001,6.3e-5 -2.9,0 0.0667,4.000059 0.1,7.900055 0.1,11.7000001 l 5.7,0 c -2e-5,-3.7999451 0.0333,-7.6999411 0.1,-11.7000001 m -0.1,15.5000001 0,-2 -5.7,0 0,2 5.7,0 m 0.1,13.5999999 c -0.0667,-4.266628 -0.10002,-8.1666241 -0.1,-11.69999986 l -5.7,0 c -1e-5,3.66670896 -0.0333,7.56670506 -0.1,11.69999986 0.99999,-0.06663 1.96665,-0.09997 2.9,-0.1 0.99998,3.4e-5 1.99998,0.03337 3,0.1" />
  </g>
</svg>