<svg xmlns="http://www.w3.org/2000/svg" viewBox="0 0 74 95">
	<rect fill="#ffffff" x="1" y="1" width="73" height="93" rx="5"/>
  <g transform="translate(-599.49711,-446.85088)">
    <path fill="#000000" stroke="none" transform="translate(566.53482,444.00742)" d="m 107.66229,90.74346 c -8e-5,4.799983 -2.26674,7.199981 -6.8,7.2 l -61.1,0 c -4.533338,-1.9e-5 -6.800002,-2.400017 -6.8,-7.2 l 0,-80.7 c -2e-6,-4.7999263 2.266662,-7.1999239 6.8,-7.1999999 l 61.1,0 c 4.53326,7.6e-5 6.79992,2.4000736 6.8,7.1999999 l 0,80.7 m -1.7,0 0,-80.7 c -8e-5,-3.6665941 -1.70007,-5.4999256 -5.1,-5.4999999 l -61.1,0 c -3.400006,7.43e-5 -5.100004,1.8334058 -5.1,5.4999999 l 0,80.7 c -4e-6,3.733318 1.699994,5.599983 5.1,5.6 l 61.1,0 c 3.39993,-1.7e-5 5.09992,-1.866682 5.1,-5.6" />
    <path fill="#9c0000" stroke="none" d="m 626.49712,476.35088 c -3e-5,-0.53329 -0.23337,-1.43328 -0.7,-2.7 -0.40003,-1.26662 -0.73336,-2.13328 -1,-2.6 2.7333,5e-5 4.39996,-0.0999 5,-0.3 0.66663,-0.26661 1.26663,-1.03328 1.8,-2.3 1.39996,-3.33328 2.09996,-5.19994 2.1,-5.6 -4e-5,-0.86661 -0.53337,-1.29994 -1.6,-1.3 l -11.5,1.5 c -1.40003,-0.39994 -2.36669,-0.73327 -2.9,-1 -0.46669,-0.26661 -0.80002,-0.73327 -1,-1.4 l 34.4,-3.4 c 2.06661,7e-5 3.99994,0.8334 5.8,2.5 -0.20006,0.40006 -0.66673,0.70006 -1.4,0.9 l -19.9,0.5 2.1,2 -5.2,6.8 c 0.13329,0.26672 0.39996,0.40005 0.8,0.4 6.73329,-1.06661 10.16662,-1.59995 10.3,-1.6 0.73328,5e-5 1.76662,0.40005 3.1,1.2 1.39995,0.73339 2.09994,1.30005 2.1,1.7 -6e-5,0.13338 -0.16672,0.40005 -0.5,0.8 -0.33339,0.40005 -0.66672,1.16672 -1,2.3 -0.33339,1.13338 -0.53339,2.56671 -0.6,4.3 -5e-5,0.33338 -5e-5,1.23338 0,2.7 -5e-5,1.40004 -0.0334,2.26671 -0.1,2.6 -5e-5,0.26671 -0.0667,0.93337 -0.2,2 -0.13339,1.00004 -0.33339,1.73337 -0.6,2.2 -0.26672,0.4667 -0.63338,1.0667 -1.1,1.8 -0.46672,0.6667 -1.06672,1.33337 -1.8,2 l -1.6,-4.6 c -0.46671,-1.06663 -1.56671,-1.59996 -3.3,-1.6 l -8.6,0.8 c -0.60004,1.2667 -0.9667,2.43337 -1.1,3.5 -1.13337,-0.46663 -1.7667,-1.36663 -1.9,-2.7 -3e-5,-0.0666 -3e-5,-0.2333 0,-0.5 0.0666,-0.3333 0.1,-0.76663 0.1,-1.3 -3e-5,-0.5333 -3e-5,-1.16663 0,-1.9 l 0,-7.7 m 21.1,25.4 c 0.19995,2e-5 0.66661,-0.1 1.4,-0.3 0.79994,-0.26664 1.29994,-0.39998 1.5,-0.4 0.99994,2e-5 1.96661,0.40002 2.9,1.2 -0.46673,0.53335 -1.66672,0.90002 -3.6,1.1 -1.86672,0.20002 -2.96672,0.43335 -3.3,0.7 -0.13339,2e-5 -1.10005,1.23335 -2.9,3.7 -5e-5,-0.0666 0.16662,-1.23332 0.5,-3.5 -0.20005,-0.13331 -0.96672,-0.19998 -2.3,-0.2 -1.33338,2e-5 -2.76671,0.13335 -4.3,0.4 -0.26671,0.93335 -0.56671,2.33335 -0.9,4.2 -0.46671,-0.46665 -0.86671,-1.53332 -1.2,-3.2 -0.40004,-0.33332 -0.73337,-0.49998 -1,-0.5 -0.13337,2e-5 -0.46671,0.0667 -1,0.2 -0.46671,0.13335 -0.76671,0.20002 -0.9,0.2 -0.40004,2e-5 -0.90004,-0.19998 -1.5,-0.6 l 0,-0.3 c 0.99996,-0.26665 2.26663,-0.69998 3.8,-1.3 -4e-5,-0.46664 -0.0667,-0.86665 -0.2,-1.2 -0.13337,-0.33331 -0.36671,-0.76664 -0.7,-1.3 -0.33337,-0.59998 -0.60004,-1.09998 -0.8,-1.5 0.46663,-0.0666 0.86663,-0.1 1.2,-0.1 1.79996,3e-5 2.69996,0.83336 2.7,2.5 -4e-5,0.40002 -0.0667,0.86669 -0.2,1.4 0.13329,0.0667 0.53329,0.10002 1.2,0.1 -4e-5,-0.0666 2.03329,-0.29998 6.1,-0.7 0.73328,-0.79998 1.09995,-2.09998 1.1,-3.9 -5e-5,-0.66664 -0.0667,-1.43331 -0.2,-2.3 l 2.1,0 c 0.26661,3e-5 0.93328,0.56669 2,1.7 -0.46672,0.66669 -1.10005,1.70002 -1.9,3.1 -5e-5,0.53336 0.13328,0.80002 0.4,0.8 m 11.5,18 c -1.20006,0.73334 -2.86673,1.1 -5,1.1 -2.26672,0 -4.50006,-1.16666 -6.7,-3.5 l -6.2,-6.9 -4.6,6.7 c -1.00004,1.26667 -2.00004,2.36667 -3,3.3 -1.00004,0.86667 -1.80004,1.46667 -2.4,1.8 -0.53337,0.26667 -1.13337,0.53333 -1.8,0.8 -0.6667,0.26667 -1.03337,0.43333 -1.1,0.5 l 0,-0.7 c 5.73329,-4.2 9.33329,-9.39999 10.8,-15.6 0.66662,0.20002 1.43329,0.60002 2.3,1.2 -5e-5,0.20001 0.1,0.50001 0.3,0.9 0.93328,1.13335 1.93328,2.16668 3,3.1 1.13328,0.93334 2.09995,1.70001 2.9,2.3 0.79995,0.60001 1.89994,1.23334 3.3,1.9 1.39994,0.60001 2.33327,1.00001 2.8,1.2 0.53327,0.20001 1.53327,0.56667 3,1.1 1.53327,0.53334 2.33327,0.8 2.4,0.8 m -14,-2.2 c -5e-5,0.53334 -0.70005,1.03334 -2.1,1.5 -1.40005,0.4 -2.40005,0.6 -3,0.6 -0.60005,0 -1.43338,-0.33333 -2.5,-1 2.73329,-1.39999 4.73328,-2.09999 6,-2.1 1.06662,10e-6 1.59995,0.33334 1.6,1 m 1,4.7 c 0.79995,0.0667 1.76661,0.43333 2.9,1.1 1.19994,0.73333 1.79994,1.43333 1.8,2.1 -6e-5,0.13333 -0.46672,0.76666 -1.4,1.9 -0.86672,1.19999 -1.30005,2.03333 -1.3,2.5 -5e-5,0.46666 0.19995,0.99999 0.6,1.6 -2.46672,0.33332 -6.36672,0.79999 -11.7,1.4 -0.26671,0.26666 -0.56671,0.63332 -0.9,1.1 -0.33338,-1.53334 -0.66671,-2.90001 -1,-4.1 -0.26671,-1.13334 -0.50004,-2.03334 -0.7,-2.7 -0.13337,-0.6 -0.30004,-1.1 -0.5,-1.5 -0.13337,-0.4 -0.23337,-0.66667 -0.3,-0.8 -0.0667,-0.13333 -0.13337,-0.26667 -0.2,-0.4 -4e-5,-0.0667 -4e-5,-0.13333 0,-0.2 -4e-5,-0.66667 0.16663,-1 0.5,-1 0.0666,0 0.49996,0.1 1.3,0.3 0.79996,0.26667 1.33329,0.4 1.6,0.4 l 9.3,-1.7 m -21.3,-12.3 c -0.33336,1e-5 -1.13336,0.0667 -2.4,0.2 -1.20003,0.13335 -1.83336,0.20001 -1.9,0.2 -0.46669,10e-6 -1.16669,-0.19999 -2.1,-0.6 2.19997,-0.79999 4.39997,-1.66665 6.6,-2.6 -3e-5,-2.06665 -0.1667,-5.19998 -0.5,-9.4 -0.2667,-0.46664 -0.40003,-0.73331 -0.4,-0.8 l 0,-1.4 c 1.46663,0.40003 2.8333,0.90003 4.1,1.5 -0.0667,3e-5 -0.5667,2.10002 -1.5,6.3 l 0.1,3.9 c 0.66663,-0.26665 1.2333,-0.39998 1.7,-0.4 0.5333,2e-5 1.36663,0.13335 2.5,0.4 -0.0667,0.46668 -1.53337,1.30001 -4.4,2.5 -3e-5,1.13335 0.1333,2.73334 0.4,4.8 1.79996,-1.19999 3.19996,-1.83332 4.2,-1.9 -3.00003,2.46667 -4.50003,3.90001 -4.5,4.3 l 0,13 c -0.0667,-10e-6 -0.40003,0.59999 -1,1.8 -0.53336,1.19999 -0.83336,1.79999 -0.9,1.8 -0.40003,-10e-6 -0.9667,-0.53334 -1.7,-1.6 l -2.6,-3.5 c 0.13331,-10e-6 0.43331,0.0333 0.9,0.1 0.53331,0.0667 0.86664,0.1 1,0.1 0.46664,-10e-6 0.8333,-0.10001 1.1,-0.3 0.26664,-0.2 0.56664,-0.96667 0.9,-2.3 0.3333,-1.26667 0.49997,-3.1 0.5,-5.5 -3e-5,-1.46666 -0.0334,-2.23333 -0.1,-2.3 l -8,5.7 c -1.00002,0 -1.83335,-0.83333 -2.5,-2.5 3.33331,-1.06666 6.86664,-3.03333 10.6,-5.9 l -0.1,-5.6 m 16.2,-32.3 c -0.66671,0.40005 -1.43338,0.73338 -2.3,1 -0.86671,0.20004 -1.56671,0.33338 -2.1,0.4 -0.53338,0.0667 -1.70004,0.13338 -3.5,0.2 -1.80004,0.0667 -3.13337,0.13338 -4,0.2 l 0,5.7 2.9,0 6.4,-1.4 c 1.79995,0.40004 3.09995,1.03337 3.9,1.9 0.86662,-2.73329 1.29995,-6.19996 1.3,-10.4 -5e-5,-1.66662 -0.13338,-2.79995 -0.4,-3.4 -0.26672,-0.59995 -0.96672,-0.89995 -2.1,-0.9 l -12.2,1.5 0,5.3 8.8,-1.4 c 0.39996,0.0667 0.83329,0.16671 1.3,0.3 0.46662,0.0667 0.76662,0.13338 0.9,0.2 0.19995,5e-5 0.39995,0.0667 0.6,0.2 0.19995,0.13338 0.36662,0.33338 0.5,0.6 m 0.3,53.2 c 1.19995,-10e-6 2.23328,-0.36667 3.1,-1.1 0.93328,-0.66667 1.39995,-1.86667 1.4,-3.6 -5e-5,-0.46667 -0.13339,-0.96667 -0.4,-1.5 l -5.9,0 c -0.80004,0 -1.80004,0.23333 -3,0.7 l 0,5.5 c 1.13329,-10e-6 2.03329,-10e-6 2.7,0 0.73329,-10e-6 1.23329,-10e-6 1.5,0 0.33329,-10e-6 0.53329,-10e-6 0.6,0" />
  </g>
</svg>