<svg xmlns="http://www.w3.org/2000/svg" viewBox="0 0 74 95">
<rect fill="#ffffff" x="1" y="1" width="73" height="93" rx="5"/>
  <g transform="translate(-799.45962,-429.12472)">
    <path fill="#000000" stroke="none" transform="translate(761.45174,446.13767)" d="m 112.70788,70.887045 c -8e-5,4.799984 -2.26675,7.199981 -6.8,7.2 l -61.100004,0 c -4.533338,-1.9e-5 -6.800003,-2.400016 -6.8,-7.2 l 0,-80.6999997 c -3e-6,-4.7999263 2.266662,-7.1999243 6.8,-7.2000003 l 61.100004,0 c 4.53325,7.6e-5 6.79992,2.400074 6.8,7.2000003 l 0,80.6999997 m -1.7,0 0,-80.6999997 c -8e-5,-3.6665943 -1.70008,-5.4999253 -5.1,-5.5000003 l -61.100004,0 c -3.400006,7.5e-5 -5.100004,1.833406 -5.1,5.5000003 l 0,80.6999997 c -4e-6,3.733318 1.699994,5.599983 5.1,5.6 l 61.100004,0 c 3.39992,-1.7e-5 5.09992,-1.866682 5.1,-5.6" />
    <path fill="#9c0000" stroke="none" transform="translate(824.63628,459.5222)" d="m 17.17334,0.50252376 c -1.66671,-0.133288 -3.33337,-0.199954 -5,-0.2 -1.6667,4.6e-5 -3.3333697,0.06671 -4.9999997,0.2 0.1333,-4.19995036 0.19997,-8.39994616 0.2,-12.59999976 -3e-5,-4.199938 -0.0667,-8.399934 -0.2,-12.6 1.66663,0.133404 3.3332997,0.20007 4.9999997,0.2 1.66663,7e-5 3.33329,-0.0666 5,-0.2 -0.13338,4.200066 -0.20004,8.400062 -0.2,12.6 -4e-5,4.2000536 0.0666,8.4000494 0.2,12.59999976 m -2,-23.09999976 c -1.00004,6.8e-5 -2.00004,6.8e-5 -3,0 l -2.9999997,0 c 0.0666,1.666733 0.1333,4.233397 0.2,7.7 l 5.5999997,0 c -4e-5,-0.466606 0.0666,-3.03327 0.2,-7.7 m -0.2,11.5 0,-2 -5.5999997,0 0,2 5.5999997,0 m 0.2,9.4999998 c -0.13337,-4.4666147 -0.20004,-7.0332788 -0.2,-7.6999997 l -5.5999997,0 c -4e-5,0.4000545 -0.0667,2.9667186 -0.2,7.6999997 0.9999597,-0.06662 1.9999597,-0.09995 2.9999997,-0.1 l 3,0.1 m 2,60.6000002 c -1.66671,-0.133346 -3.33337,-0.200013 -5,-0.2 -1.6667,-1.3e-5 -3.3333697,0.06665 -4.9999997,0.2 0.1333,-4.200009 0.19997,-8.400005 0.2,-12.6 -3e-5,-4.199996 -0.0667,-8.399992 -0.2,-12.6 1.66663,0.133345 3.3332997,0.200012 4.9999997,0.2 1.66663,1.2e-5 3.33329,-0.06665 5,-0.2 -0.13338,4.200008 -0.20004,8.400004 -0.2,12.6 -4e-5,4.199995 0.0666,8.399991 0.2,12.6 m -2,-23.1 c -1.00004,1e-5 -2.00004,1e-5 -3,0 l -2.9999997,0 c 0.0666,1.666675 0.1333,4.233339 0.2,7.7 l 5.5999997,0 c -4e-5,-0.466664 0.0666,-3.033328 0.2,-7.7 m -0.2,11.5 0,-2 -5.5999997,0 0,2 5.5999997,0 m 0.2,9.5 c -0.13337,-4.466673 -0.20004,-7.033337 -0.2,-7.7 l -5.5999997,0 c -4e-5,0.399996 -0.0667,2.96666 -0.2,7.7 0.9999597,-0.06668 1.9999597,-0.100011 2.9999997,-0.1 l 3,0.1 m 2,-27.1 c -1.66671,-0.133317 -3.33337,-0.199984 -5,-0.2 -1.6667,1.6e-5 -3.3333697,0.06668 -4.9999997,0.2 0.1333,-4.19998 0.19997,-8.399976 0.2,-12.6 -3e-5,-4.199967 -0.0667,-8.3999632 -0.2,-12.6000002 1.66663,0.133374 3.3332997,0.200041 4.9999997,0.2 1.66663,4.1e-5 3.33329,-0.06663 5,-0.2 -0.13338,4.200037 -0.20004,8.4000332 -0.2,12.6000002 -4e-5,4.200024 0.0666,8.40002 0.2,12.6 m -2,-23.1000002 c -1.00004,3.9e-5 -2.00004,3.9e-5 -3,0 l -2.9999997,0 c 0.0666,1.666704 0.1333,4.2333682 0.2,7.7000002 l 5.5999997,0 c -4e-5,-0.466635 0.0666,-3.033299 0.2,-7.7000002 m -0.2,11.5000002 0,-2 -5.5999997,0 0,2 5.5999997,0 m 0.2,9.5 c -0.13337,-4.466644 -0.20004,-7.033308 -0.2,-7.7 l -5.5999997,0 c -4e-5,0.400025 -0.0667,2.96669 -0.2,7.7 0.9999597,-0.06665 1.9999597,-0.09998 2.9999997,-0.1 l 3,0.1" />
    <path fill="#006c00" stroke="none" d="m 861.35962,460.02472 c -1.66673,-0.13329 -3.33339,-0.19996 -5,-0.2 -1.66672,4e-5 -3.33339,0.0667 -5,0.2 0.13328,-4.19995 0.19995,-8.39995 0.2,-12.6 -5e-5,-4.19994 -0.0667,-8.39993 -0.2,-12.6 1.66661,0.1334 3.33328,0.20007 5,0.2 1.66661,7e-5 3.33327,-0.0666 5,-0.2 -0.13339,4.20007 -0.20006,8.40006 -0.2,12.6 -6e-5,4.20005 0.0666,8.40005 0.2,12.6 m -2,-23.1 c -1.00006,7e-5 -2.00006,7e-5 -3,0 l -3,0 c 0.0666,1.66673 0.13328,4.2334 0.2,7.7 l 5.6,0 c -6e-5,-0.4666 0.0666,-3.03327 0.2,-7.7 m -0.2,11.5 0,-2 -5.6,0 0,2 5.6,0 m 0.2,9.5 c -0.13339,-4.46662 -0.20006,-7.03328 -0.2,-7.7 l -5.6,0 c -5e-5,0.40005 -0.0667,2.96672 -0.2,7.7 0.99995,-0.0666 1.99995,-0.1 3,-0.1 l 3,0.1 m -37.1,2.1 c -1.66669,-0.13329 -3.33336,-0.19996 -5,-0.2 -1.66669,4e-5 -3.33335,0.0667 -5,0.2 0.13332,-4.19995 0.19998,-8.39995 0.2,-12.6 -2e-5,-4.19994 -0.0667,-8.39993 -0.2,-12.6 1.66665,0.1334 3.33331,0.20007 5,0.2 1.66664,7e-5 3.33331,-0.0666 5,-0.2 -0.13336,4.20007 -0.20003,8.40006 -0.2,12.6 -3e-5,4.20005 0.0666,8.40005 0.2,12.6 m -2,-23.1 c -1.00002,7e-5 -2.00002,7e-5 -3,0 l -3,0 c 0.0666,1.66673 0.13332,4.2334 0.2,7.7 l 5.6,0 c -2e-5,-0.4666 0.0666,-3.03327 0.2,-7.7 m -0.2,11.5 0,-2 -5.6,0 0,2 5.6,0 m 0.2,9.5 c -0.13336,-4.46662 -0.20002,-7.03328 -0.2,-7.7 l -5.6,0 c -2e-5,0.40005 -0.0667,2.96672 -0.2,7.7 0.99998,-0.0666 1.99998,-0.1 3,-0.1 l 3,0.1 m 41.1,60.6 c -1.66673,-0.13335 -3.33339,-0.20002 -5,-0.2 -1.66672,-2e-5 -3.33339,0.0666 -5,0.2 0.13328,-4.20001 0.19995,-8.40001 0.2,-12.6 -5e-5,-4.2 -0.0667,-8.4 -0.2,-12.6 1.66661,0.13334 3.33328,0.20001 5,0.2 1.66661,10e-6 3.33327,-0.0667 5,-0.2 -0.13339,4.2 -0.20006,8.4 -0.2,12.6 -6e-5,4.19999 0.0666,8.39999 0.2,12.6 m -2,-23.1 c -1.00006,1e-5 -2.00006,1e-5 -3,0 l -3,0 c 0.0666,1.66667 0.13328,4.23334 0.2,7.7 l 5.6,0 c -6e-5,-0.46667 0.0666,-3.03333 0.2,-7.7 m -0.2,11.5 0,-2 -5.6,0 0,2 5.6,0 m 0.2,9.5 c -0.13339,-4.46668 -0.20006,-7.03334 -0.2,-7.7 l -5.6,0 c -5e-5,0.39999 -0.0667,2.96666 -0.2,7.7 0.99995,-0.0667 1.99995,-0.10001 3,-0.1 l 3,0.1 m 2,-27.1 c -1.66673,-0.13332 -3.33339,-0.19999 -5,-0.2 -1.66672,10e-6 -3.33339,0.0667 -5,0.2 0.13328,-4.19998 0.19995,-8.39998 0.2,-12.6 -5e-5,-4.19997 -0.0667,-8.39997 -0.2,-12.6 1.66661,0.13337 3.33328,0.20004 5,0.2 1.66661,4e-5 3.33327,-0.0666 5,-0.2 -0.13339,4.20003 -0.20006,8.40003 -0.2,12.6 -6e-5,4.20002 0.0666,8.40002 0.2,12.6 m -2,-23.1 c -1.00006,4e-5 -2.00006,4e-5 -3,0 l -3,0 c 0.0666,1.6667 0.13328,4.23336 0.2,7.7 l 5.6,0 c -6e-5,-0.46664 0.0666,-3.0333 0.2,-7.7 m -0.2,11.5 0,-2 -5.6,0 0,2 5.6,0 m 0.2,9.5 c -0.13339,-4.46665 -0.20006,-7.03331 -0.2,-7.7 l -5.6,0 c -5e-5,0.40002 -0.0667,2.96669 -0.2,7.7 0.99995,-0.0666 1.99995,-0.1 3,-0.1 l 3,0.1 m -37.1,31.3 c -1.66669,-0.13335 -3.33336,-0.20002 -5,-0.2 -1.66669,-2e-5 -3.33335,0.0666 -5,0.2 0.13332,-4.20001 0.19998,-8.40001 0.2,-12.6 -2e-5,-4.2 -0.0667,-8.4 -0.2,-12.6 1.66665,0.13334 3.33331,0.20001 5,0.2 1.66664,10e-6 3.33331,-0.0667 5,-0.2 -0.13336,4.2 -0.20003,8.4 -0.2,12.6 -3e-5,4.19999 0.0666,8.39999 0.2,12.6 m -2,-23.1 c -1.00002,1e-5 -2.00002,1e-5 -3,0 l -3,0 c 0.0666,1.66667 0.13332,4.23334 0.2,7.7 l 5.6,0 c -2e-5,-0.46667 0.0666,-3.03333 0.2,-7.7 m -0.2,11.5 0,-2 -5.6,0 0,2 5.6,0 m 0.2,9.5 c -0.13336,-4.46668 -0.20002,-7.03334 -0.2,-7.7 l -5.6,0 c -2e-5,0.39999 -0.0667,2.96666 -0.2,7.7 0.99998,-0.0667 1.99998,-0.10001 3,-0.1 l 3,0.1 m 2,-27.1 c -1.66669,-0.13332 -3.33336,-0.19999 -5,-0.2 -1.66669,10e-6 -3.33335,0.0667 -5,0.2 0.13332,-4.19998 0.19998,-8.39998 0.2,-12.6 -2e-5,-4.19997 -0.0667,-8.39997 -0.2,-12.6 1.66665,0.13337 3.33331,0.20004 5,0.2 1.66664,4e-5 3.33331,-0.0666 5,-0.2 -0.13336,4.20003 -0.20003,8.40003 -0.2,12.6 -3e-5,4.20002 0.0666,8.40002 0.2,12.6 m -2,-23.1 c -1.00002,4e-5 -2.00002,4e-5 -3,0 l -3,0 c 0.0666,1.6667 0.13332,4.23336 0.2,7.7 l 5.6,0 c -2e-5,-0.46664 0.0666,-3.0333 0.2,-7.7 m -0.2,11.5 0,-2 -5.6,0 0,2 5.6,0 m 0.2,9.5 c -0.13336,-4.46665 -0.20002,-7.03331 -0.2,-7.7 l -5.6,0 c -2e-5,0.40002 -0.0667,2.96669 -0.2,7.7 0.99998,-0.0666 1.99998,-0.1 3,-0.1 l 3,0.1" />
  </g>
</svg>