<svg xmlns="http://www.w3.org/2000/svg" viewBox="0 0 74 95">
	<rect fill="#ffffff" x="1" y="1" width="73" height="93" rx="5"/>
  <g transform="translate(-295.93692,-431.06141)">
    <path fill="#20208c" stroke="none" d="m 346.03692,496.51141 c 2.99994,2e-5 5.23327,-0.73332 6.7,-2.2 1.4666,-1.46665 2.83327,-4.16665 4.1,-8.1 0.0666,2.73336 0.73326,6.26668 2,10.6 -1.00007,1.00001 -2.70007,1.93335 -5.1,2.8 -2.3334,0.86668 -4.53339,1.30001 -6.6,1.3 -5.60005,1e-5 -9.06672,-1.56665 -10.4,-4.7 -0.66671,-1.53332 -1.00005,-2.36665 -1,-2.5 l 0,-34.5 c -5e-5,-0.19995 -0.20005,-0.86661 -0.6,-2 -0.40005,-1.13328 -0.60005,-1.79994 -0.6,-2 l 0,-0.9 c 2.93329,0.93339 4.86662,2.03339 5.8,3.3 l -1.9,15.1 0,5.8 0.3,0.1 c 5.53328,-3.59996 8.46661,-6.79996 8.8,-9.6 l 1.5,0 c 0.46661,4e-5 1.16661,0.40004 2.1,1.2 0.99994,0.80004 1.6666,1.50004 2,2.1 l -14.9,8.3 0,12.4 c -5e-5,0.33335 0.16662,0.73335 0.5,1.2 0.33328,0.46668 1.13328,0.96668 2.4,1.5 1.26661,0.53335 2.89995,0.80002 4.9,0.8 m -22.6,2.2 c -3e-5,-0.33332 0.1333,-1.39999 0.4,-3.2 0.3333,-1.86665 0.49996,-2.96665 0.5,-3.3 -4e-5,-0.53331 -0.10004,-1.26665 -0.3,-2.2 l -11.8,8.3 c -0.66669,-0.0667 -2.16669,-1.33332 -4.5,-3.8 6.79997,-1.66665 12.49997,-3.96665 17.1,-6.9 l 0,-11 c -0.20004,-0.19996 -0.43337,-0.29997 -0.7,-0.3 -5.73336,1.73337 -8.63336,2.60003 -8.7,2.6 -0.86669,3e-5 -1.93336,-0.6333 -3.2,-1.9 4.73331,-1.99996 8.76663,-3.09996 12.1,-3.3 0.3333,-0.39996 0.49996,-0.89996 0.5,-1.5 -4e-5,-1.53329 -0.33337,-3.69996 -1,-6.5 l -1.6,-6.3 1.8,0 c 0.26663,5e-5 0.89996,0.43338 1.9,1.3 1.06663,0.86672 1.66663,1.40005 1.8,1.6 0.13329,0.26671 0.29996,0.70005 0.5,1.3 l -0.8,5.8 0,29.7 c -4e-5,0.13334 -0.20004,0.66668 -0.6,1.6 l -0.9,2.2 c -1.6667,-0.53332 -2.50003,-1.93332 -2.5,-4.2"/>
    <path fill="#000000" stroke="none" d="m 370.63692,518.96141 c -8e-5,4.79999 -2.26674,7.19998 -6.8,7.2 l -61.1,0 c -4.53334,-1e-5 -6.80001,-2.40001 -6.8,-7.2 l 0,-80.7 c -10e-6,-4.79992 2.26666,-7.19992 6.8,-7.2 l 61.1,0 c 4.53326,8e-5 6.79992,2.40008 6.8,7.2 l 0,80.7 m -1.7,0 0,-80.7 c -8e-5,-3.66659 -1.70007,-5.49992 -5.1,-5.5 l -61.1,0 c -3.40001,8e-5 -5.10001,1.83341 -5.1,5.5 l 0,80.7 c -10e-6,3.73332 1.69999,5.59999 5.1,5.6 l 61.1,0 c 3.39993,-10e-6 5.09992,-1.86668 5.1,-5.6"/>
  </g>
</svg>