<svg xmlns="http://www.w3.org/2000/svg" viewBox="0 0 74 95">
	<rect fill="#ffffff" x="1" y="1" width="73" height="93" rx="5"/>
  <g transform="translate(-299.64739,-302.17438)">
    <path fill="#000000" stroke="none" transform="translate(256.58875,328.02617)" d="m 117.75864,62.048209 c -8e-5,4.799983 -2.26674,7.199981 -6.8,7.2 l -61.099998,0 c -4.533338,-1.9e-5 -6.800003,-2.400017 -6.8,-7.2 l 0,-80.7 c -3e-6,-4.799927 2.266662,-7.199924 6.8,-7.2 l 61.099998,0 c 4.53326,7.6e-5 6.79992,2.400073 6.8,7.2 l 0,80.7 m -1.7,0 0,-80.7 c -7e-5,-3.666595 -1.70007,-5.499926 -5.1,-5.5 l -61.099998,0 c -3.400006,7.4e-5 -5.100004,1.833405 -5.1,5.5 l 0,80.7 c -4e-6,3.733317 1.699994,5.599982 5.1,5.6 l 61.099998,0 c 3.39993,-1.8e-5 5.09993,-1.866683 5.1,-5.6" />
    <g transform="translate(-0.47177793,0.50149029)">
      <path fill="#006c00" stroke="none" transform="translate(5.3800064,334.39321)" d="m 351.83916,-5.8703211 c 1.26661,4.92e-5 2.93327,0.6333819 5,1.9 2.13327,1.2667127 3.63327,2.0333786 4.5,2.3 l 0,0.6 c -0.3334,0.26671081 -1.36673,0.56671051 -3.1,0.90000001 -1.66673,0.3333765 -2.80006,1.0000425 -3.4,1.99999999 l -2.3,7.3000004 c -0.40006,1.1333657 -2.73339,4.3666957 -7,9.6999997 -2.66671,3.333354 -4.00004,6.333351 -4,9 -4e-5,1.200014 0.59995,2.600013 1.8,4.2 1.26662,1.600009 3.16662,2.466675 5.7,2.6 0.26661,8e-6 0.69995,0.300008 1.3,0.9 l -22.3,0 c 0.39997,-0.333326 1.2333,-0.699992 2.5,-1.1 1.26663,-0.466658 2.09996,-0.866657 2.5,-1.2 -0.0667,-0.266657 -0.20004,-0.833323 -0.4,-1.7 -0.20004,-0.866654 -0.3667,-1.53332 -0.5,-2 -0.13337,-0.466653 -0.33337,-1.033319 -0.6,-1.7 -0.2667,-0.666651 -0.5667,-1.199984 -0.9,-1.6 -0.33337,-0.466649 -0.73337,-0.833316 -1.2,-1.1 -3e-5,-0.06665 -0.40003,-0.09998 -1.2,-0.1 -1.93336,1.8e-5 -5.43336,0.966684 -10.5,2.9 -5.00002,1.86668 -8.46668,2.800012 -10.4,2.8 -0.66668,1.2e-5 -1.56668,-0.133321 -2.7,-0.4 -1.13334,-0.266654 -1.73334,-0.499987 -1.8,-0.7 0.99999,-0.866652 2.43332,-2.266651 4.3,-4.2 -0.0667,-0.199982 -0.26668,-0.366649 -0.6,-0.5 -0.33334,-0.199982 -0.66668,-0.333315 -1,-0.4 l -0.5,0 0,-0.6 c 0.0667,-0.133314 0.19999,-0.299981 0.4,-0.5 2.06666,-0.39998 3.73332,-0.79998 5,-1.2 1.33332,-0.399979 3.46665,-1.433311 6.4,-3.1 2.99998,-1.733308 6.43331,-4.099972 10.3,-7.1 l 15.2,-12.50000009 c 0.79995,-1.13328841 1.53329,-2.03328751 2.2,-2.70000001 0.66662,-0.6666195 1.63328,-1.2666189 2.9,-1.8 1.26661,-0.5999511 2.73328,-0.8999508 4.4,-0.9 m -22,29.5000001 c 0.3333,1.9e-5 1.06663,0.500019 2.2,1.5 1.19996,1.000017 1.86663,1.53335 2,1.6 l 7.4,-6.6 c 4.46662,-3.999973 7.06661,-6.69997 7.8,-8.1 l 4,-9.0000001 c 1.73327,-2.33329069 2.59994,-3.76662259 2.6,-4.3 -6e-5,-0.7999546 -0.56673,-1.5999538 -1.7,-2.4 -1.13339,-0.8666188 -2.16672,-1.2999517 -3.1,-1.3 -1.06672,4.83e-5 -2.46672,0.7667142 -4.2,2.3 -1.73338,1.4667112 -5.26671,4.4667082 -10.6,9.0000004 -5.2667,4.4666987 -11.46669,9.2333607 -18.6,14.2999997 0.19998,0.533355 0.86664,0.966688 2,1.3 1.13331,0.266687 1.89998,0.400021 2.3,0.4 l 7.3,-2.3 c 3.06663,-0.999976 5.8333,-2.199975 8.3,-3.6 2.46662,-1.399972 4.33329,-2.766637 5.6,-4.1 1.26662,-1.333301 2.23328,-2.4999667 2.9,-3.4999997 0.66662,-1.066631 0.99995,-1.899964 1,-2.5 l 0,-0.6 c -0.60005,-0.199963 -1.70005,-0.433296 -3.3,-0.7 0.13329,-0.799961 0.29995,-1.233294 0.5,-1.3 l 0.2,0 c 0.13329,0.06671 0.33329,0.100039 0.6,0.1 1.13328,3.9e-5 2.09995,0.233372 2.9,0.7 0.86661,0.466705 1.39995,0.866704 1.6,1.2 0.26661,0.33337 0.39995,0.566703 0.4,0.7 -5e-5,0.13337 -0.23339,0.433369 -0.7,0.9 l -0.6,0.8 c -1.20005,2.5333657 -3.80005,5.1000297 -7.8,7.6999997 -4.00004,2.600025 -8.0667,4.633356 -12.2,6.1 -1.0667,0.333354 -2.9667,0.733354 -5.7,1.2 -2.73336,0.400019 -5.26669,0.933352 -7.6,1.6 -2.60002,0.666684 -3.96668,1.000017 -4.1,1 -1.73335,0.600017 -3.03334,1.366683 -3.9,2.3 l 0,1 3.7,0 c 1.13332,1.4e-5 2.86665,-0.599985 5.2,-1.8 0.53331,-0.399984 1.23331,-0.86665 2.1,-1.4 4.86664,-1.466648 8.69997,-2.199981 11.5,-2.2 m 5.1,6.4 c -4e-5,1.000012 0.36663,1.966678 1.1,2.9 0.73329,0.866676 1.66663,1.300009 2.8,1.3 1.66662,9e-6 2.49996,-0.766657 2.5,-2.3 -4e-5,-1.066655 -0.63338,-2.166653 -1.9,-3.3 -1.26671,-1.199984 -2.46671,-1.933317 -3.6,-2.2 -0.60004,1.466682 -0.90004,2.666681 -0.9,3.6" />
      <path fill="#9c0000" stroke="none" transform="translate(-83.361363,337.76446)" d="m 440.93259,-4.9533169 c -6e-5,1.000044 -0.43339,1.5000435 -1.3,1.5 -1.00006,4.35e-5 -1.50006,-0.499956 -1.5,-1.5 -6e-5,-0.7999542 0.49994,-1.1999538 1.5,-1.2 0.86661,4.62e-5 1.29994,0.4000458 1.3,1.2" />
    </g>
  </g>    
</svg>