<svg xmlns="http://www.w3.org/2000/svg" viewBox="0 0 74 95">
	<rect fill="#ffffff" x="1" y="1" width="73" height="93" rx="5"/>
  <g transform="translate(-783.16824,-460.4656)">
    <g transform="translate(747.68574,478.74125)">
      <path fill="#000000" stroke="none" d="m 110.1825,69.624354 c -8e-5,4.799983 -2.26674,7.199981 -6.8,7.2 l -61.100003,0 c -4.533338,-1.9e-5 -6.800003,-2.400017 -6.8,-7.2 l 0,-80.7 c -3e-6,-4.799927 2.266662,-7.199924 6.8,-7.2 l 61.100003,0 c 4.53326,7.6e-5 6.79992,2.400073 6.8,7.2 l 0,80.7 m -1.7,0 0,-80.7 c -8e-5,-3.666594 -1.70008,-5.499926 -5.1,-5.5 l -61.100003,0 c -3.400006,7.4e-5 -5.100004,1.833406 -5.1,5.5 l 0,80.7 c -4e-6,3.733317 1.699994,5.599982 5.1,5.6 l 61.100003,0 c 3.39992,-1.8e-5 5.09992,-1.866683 5.1,-5.6" />
      <path fill="#006c00" stroke="none" d="m 97.332502,66.374349 c -1.66673,-0.133342 -3.333395,-0.200009 -5,-0.2 -1.666725,-9e-6 -3.300056,0.06666 -4.9,0.2 0.133279,-5.600003 0.199945,-11.166664 0.2,-16.7 -5.5e-5,-5.53332 -0.06672,-11.066648 -0.2,-16.6 1.66661,0.133358 3.299942,0.200024 4.9,0.2 1.666605,2.4e-5 3.33327,-0.06664 5,-0.2 -0.133398,5.533352 -0.200064,11.06668 -0.2,16.6 -6.4e-5,5.600002 0.0666,11.166663 0.2,16.7 m -2,-31.2 c -1.000062,2.2e-5 -2.000061,2.2e-5 -3,0 -0.933392,2.2e-5 -1.900058,2.2e-5 -2.9,0 0.06661,4.000018 0.09994,7.900014 0.1,11.7 l 5.7,0 c -6.2e-5,-3.799986 0.03327,-7.699982 0.1,-11.7 m -0.1,15.5 0,-2 -5.7,0 0,2 5.7,0 m 0.1,13.6 c -0.06673,-4.266669 -0.100062,-8.166665 -0.1,-11.7 l -5.7,0 c -5.7e-5,3.666668 -0.03339,7.566664 -0.1,11.7 0.999942,-0.06667 1.966608,-0.100007 2.9,-0.1 0.999939,-7e-6 1.999938,0.03333 3,0.1 m 2,-38.8 c -1.66673,-0.133301 -3.333395,-0.199968 -5,-0.2 -1.666725,3.2e-5 -3.300056,0.0667 -4.9,0.2 0.133279,-5.599962 0.199945,-11.166624 0.2,-16.6999997 -5.5e-5,-5.5332791 -0.06672,-11.0666069 -0.2,-16.6000002 1.66661,0.1333987 3.299942,0.2000653 4.9,0.2 1.666605,6.53e-5 3.33327,-0.066601 5,-0.2 -0.133398,5.5333933 -0.200064,11.0667211 -0.2,16.6000002 -6.4e-5,5.6000427 0.0666,11.1667037 0.2,16.6999997 m -2,-31.1999999 c -1.000062,6.34e-5 -2.000061,6.34e-5 -3,0 -0.933392,6.34e-5 -1.900058,6.34e-5 -2.9,0 0.06661,4.0000594 0.09994,7.9000555 0.1,11.7 l 5.7,0 c -6.2e-5,-3.7999445 0.03327,-7.6999406 0.1,-11.7 m -0.1,15.5000002 0,-2.0000002 -5.7,0 0,2.0000002 5.7,0 m 0.1,13.5999997 c -0.06673,-4.266628 -0.100062,-8.166624 -0.1,-11.7 l -5.7,0 c -5.7e-5,3.666709 -0.03339,7.566705 -0.1,11.7 0.999942,-0.06663 1.966608,-0.09997 2.9,-0.1 0.999939,3.4e-5 1.999938,0.03337 3,0.1 m -37.1,43 c -1.66669,-0.133342 -3.333355,-0.200009 -5,-0.2 -1.666685,-9e-6 -3.300017,0.06666 -4.9,0.2 0.133318,-5.600003 0.199984,-11.166664 0.2,-16.7 -1.6e-5,-5.53332 -0.06668,-11.066648 -0.2,-16.6 1.666649,0.133358 3.299981,0.200024 4.9,0.2 1.666645,2.4e-5 3.33331,-0.06664 5,-0.2 -0.133359,5.533352 -0.200025,11.06668 -0.2,16.6 -2.5e-5,5.600002 0.06664,11.166663 0.2,16.7 m -2,-31.2 c -1.000022,2.2e-5 -2.000021,2.2e-5 -3,0 -0.933353,2.2e-5 -1.900019,2.2e-5 -2.9,0 0.06665,4.000018 0.09998,7.900014 0.1,11.7 l 5.7,0 c -2.3e-5,-3.799986 0.03331,-7.699982 0.1,-11.7 m -0.1,15.5 0,-2 -5.7,0 0,2 5.7,0 m 0.1,13.6 c -0.06669,-4.266669 -0.100023,-8.166665 -0.1,-11.7 l -5.7,0 c -1.8e-5,3.666668 -0.03335,7.566664 -0.1,11.7 0.999981,-0.06667 1.966647,-0.100007 2.9,-0.1 0.999979,-7e-6 1.999978,0.03333 3,0.1 m 2,-38.8 c -1.66669,-0.133301 -3.333355,-0.199968 -5,-0.2 -1.666685,3.2e-5 -3.300017,0.0667 -4.9,0.2 0.133318,-5.599962 0.199984,-11.166624 0.2,-16.6999997 -1.6e-5,-5.5332791 -0.06668,-11.0666069 -0.2,-16.6000002 1.666649,0.1333987 3.299981,0.2000653 4.9,0.2 1.666645,6.53e-5 3.33331,-0.066601 5,-0.2 -0.133359,5.5333933 -0.200025,11.0667211 -0.2,16.6000002 -2.5e-5,5.6000427 0.06664,11.1667037 0.2,16.6999997 m -2,-31.1999999 c -1.000022,6.34e-5 -2.000021,6.34e-5 -3,0 -0.933353,6.34e-5 -1.900019,6.34e-5 -2.9,0 0.06665,4.0000594 0.09998,7.9000555 0.1,11.7 l 5.7,0 c -2.3e-5,-3.7999445 0.03331,-7.6999406 0.1,-11.7 m -0.1,15.5000002 0,-2.0000002 -5.7,0 0,2.0000002 5.7,0 m 0.1,13.5999997 c -0.06669,-4.266628 -0.100023,-8.166624 -0.1,-11.7 l -5.7,0 c -1.8e-5,3.666709 -0.03335,7.566705 -0.1,11.7 0.999981,-0.06663 1.966647,-0.09997 2.9,-0.1 0.999979,3.4e-5 1.999978,0.03337 3,0.1 m 21.6,43 c -1.66671,-0.133342 -3.333375,-0.200009 -5,-0.2 -1.666705,-9e-6 -3.300037,0.06666 -4.9,0.2 0.133298,-5.600003 0.199965,-11.166664 0.2,-16.7 -3.5e-5,-5.53332 -0.0667,-11.066648 -0.2,-16.6 1.66663,0.133358 3.299962,0.200024 4.9,0.2 1.666625,2.4e-5 3.33329,-0.06664 5,-0.2 -0.133378,5.533352 -0.200045,11.06668 -0.2,16.6 -4.5e-5,5.600002 0.06662,11.166663 0.2,16.7 m -2,-31.2 c -1.000042,2.2e-5 -2.000041,2.2e-5 -3,0 -0.933372,2.2e-5 -1.900038,2.2e-5 -2.9,0 0.06663,4.000018 0.09996,7.900014 0.1,11.7 l 5.7,0 c -4.3e-5,-3.799986 0.03329,-7.699982 0.1,-11.7 m -0.1,15.5 0,-2 -5.7,0 0,2 5.7,0 m 0.1,13.6 c -0.06671,-4.266669 -0.100043,-8.166665 -0.1,-11.7 l -5.7,0 c -3.7e-5,3.666668 -0.03337,7.566664 -0.1,11.7 0.999962,-0.06667 1.966628,-0.100007 2.9,-0.1 0.999959,-7e-6 1.999958,0.03333 3,0.1 m 2,-38.8 c -1.66671,-0.133301 -3.333375,-0.199968 -5,-0.2 -1.666705,3.2e-5 -3.300037,0.0667 -4.9,0.2 0.133298,-5.599962 0.199965,-11.166624 0.2,-16.6999997 -3.5e-5,-5.5332791 -0.0667,-11.0666069 -0.2,-16.6000002 1.66663,0.1333987 3.299962,0.2000653 4.9,0.2 1.666625,6.53e-5 3.33329,-0.066601 5,-0.2 -0.133378,5.5333933 -0.200045,11.0667211 -0.2,16.6000002 -4.5e-5,5.6000427 0.06662,11.1667037 0.2,16.6999997 m -2,-31.1999999 c -1.000042,6.34e-5 -2.000041,6.34e-5 -3,0 -0.933372,6.34e-5 -1.900038,6.34e-5 -2.9,0 0.06663,4.0000594 0.09996,7.9000555 0.1,11.7 l 5.7,0 c -4.3e-5,-3.7999445 0.03329,-7.6999406 0.1,-11.7 m -0.1,15.5000002 0,-2.0000002 -5.7,0 0,2.0000002 5.7,0 m 0.1,13.5999997 c -0.06671,-4.266628 -0.100043,-8.166624 -0.1,-11.7 l -5.7,0 c -3.7e-5,3.666709 -0.03337,7.566705 -0.1,11.7 0.999962,-0.06663 1.966628,-0.09997 2.9,-0.1 0.999959,3.4e-5 1.999958,0.03337 3,0.1" />
    </g>
  </g>
</svg>