<svg xmlns="http://www.w3.org/2000/svg" viewBox="0 0 74 95">
<rect fill="#ffffff" x="1" y="1" width="73" height="93" rx="5"/>
  <g transform="translate(-327.13958,-280.3834)">
    <path fill="#000000" stroke="none" transform="translate(299.64739,302.17438)" d="m 102.19219,66.109023 c -8e-5,4.799983 -2.266742,7.19998 -6.8,7.2 l -61.1,0 c -4.533338,-2e-5 -6.800003,-2.400017 -6.8,-7.2 l 0,-80.7 c -3e-6,-4.799927 2.266662,-7.199924 6.8,-7.2 l 61.1,0 c 4.533258,7.6e-5 6.79992,2.400073 6.8,7.2 l 0,80.7 m -1.7,0 0,-80.7 c -8e-5,-3.666595 -1.700074,-5.499926 -5.1,-5.5 l -61.1,0 c -3.400006,7.4e-5 -5.100004,1.833405 -5.1,5.5 l 0,80.7 c -4e-6,3.733317 1.699994,5.599982 5.1,5.6 l 61.1,0 c 3.399926,-1.8e-5 5.09992,-1.866683 5.1,-5.6" />
    <path fill="#006c00" stroke="none" transform="translate(173.72177,303.80073)" d="m 195.71781,61.232669 c -1.66671,-0.133342 -3.33337,-0.200009 -5,-0.2 -1.6667,-9e-6 -3.30003,0.06666 -4.9,0.2 0.1333,-5.600004 0.19997,-11.166665 0.2,-16.7 -3e-5,-5.53332 -0.0667,-11.066648 -0.2,-16.6 1.66663,0.133357 3.29996,0.200024 4.9,0.2 1.66663,2.4e-5 3.33329,-0.06664 5,-0.2 -0.13338,5.533352 -0.20004,11.06668 -0.2,16.6 -4e-5,5.600002 0.0666,11.166663 0.2,16.7 m -2,-31.2 c -1.00004,2.2e-5 -2.00004,2.2e-5 -3,0 -0.93337,2.2e-5 -1.90004,2.2e-5 -2.9,0 0.0666,4.000018 0.1,7.900014 0.1,11.7 l 5.7,0 c -4e-5,-3.799986 0.0333,-7.699982 0.1,-11.7 m -0.1,15.5 0,-2 -5.7,0 0,2 5.7,0 m 0.1,13.6 c -0.0667,-4.266669 -0.10004,-8.166666 -0.1,-11.7 l -5.7,0 c -3e-5,3.666668 -0.0334,7.566664 -0.1,11.7 0.99996,-0.06667 1.96663,-0.100007 2.9,-0.1 0.99996,-7e-6 1.99996,0.03333 3,0.1 m 2,-38.8 c -1.66671,-0.133301 -3.33337,-0.199968 -5,-0.2 -1.6667,3.2e-5 -3.30003,0.0667 -4.9,0.2 0.1333,-5.599963 0.19997,-11.1666238 0.2,-16.7000005 -3e-5,-5.5332788 -0.0667,-11.0666067 -0.2,-16.5999995 1.66663,0.133398 3.29996,0.200065 4.9,0.2 1.66663,6.5e-5 3.33329,-0.0666 5,-0.2 -0.13338,5.5333928 -0.20004,11.0667207 -0.2,16.5999995 -4e-5,5.6000437 0.0666,11.1667045 0.2,16.7000005 m -2,-31.2 c -1.00004,6.3e-5 -2.00004,6.3e-5 -3,0 -0.93337,6.3e-5 -1.90004,6.3e-5 -2.9,0 0.0666,4.0000589 0.1,7.900055 0.1,11.69999954 l 5.7,0 c -4e-5,-3.79994454 0.0333,-7.69994064 0.1,-11.69999954 m -0.1,15.4999995 0,-2 -5.7,0 0,2 5.7,0 m 0.1,13.6000005 c -0.0667,-4.266629 -0.10004,-8.166625 -0.1,-11.7000005 l -5.7,0 c -3e-5,3.6667095 -0.0334,7.5667055 -0.1,11.7000005 0.99996,-0.06663 1.96663,-0.09997 2.9,-0.1 0.99996,3.4e-5 1.99996,0.03337 3,0.1" />
  </g>    
</svg>