<svg xmlns="http://www.w3.org/2000/svg" viewBox="0 0 74 95">
  <rect fill="#ffffff" x="1" y="1" width="73" height="93" rx="5"/>
  <g transform="translate(-566.53482,-444.00742)">
    <path fill="#000000" stroke="none" transform="translate(539.09975,439.21318)" d="m 102.13507,92.694243 c -8e-5,4.799983 -2.266745,7.199981 -6.800003,7.2 l -61.1,0 c -4.533338,-1.9e-5 -6.800003,-2.400017 -6.8,-7.2 l 0,-80.7 c -3e-6,-4.7999265 2.266662,-7.1999241 6.8,-7.2000001 l 61.1,0 c 4.533258,7.6e-5 6.799923,2.4000736 6.800003,7.2000001 l 0,80.7 m -1.7,0 0,-80.7 c -8e-5,-3.6665943 -1.700077,-5.4999258 -5.100003,-5.5000001 l -61.1,0 c -3.400006,7.43e-5 -5.100004,1.8334058 -5.1,5.5000001 l 0,80.7 c -4e-6,3.733318 1.699994,5.599982 5.1,5.6 l 61.1,0 c 3.399926,-1.8e-5 5.099923,-1.866682 5.100003,-5.6" />
    <path fill="#9c0000" stroke="none" transform="translate(476.67464,484.73148)" d="m 112.66017,-21.724061 c -1.46669,1.533389 -3.83335,3.16672 -7.1,4.9 -3.20001,1.733384 -5.733346,2.600049 -7.6,2.6 -0.06668,4.9e-5 -0.166677,4.9e-5 -0.3,0 -0.06668,4.9e-5 -0.233344,4.9e-5 -0.5,0 -0.266676,4.9e-5 -0.600009,4.9e-5 -1,0 0.199991,-0.06662 0.89999,-0.366617 2.1,-0.9 1.266654,-0.533283 2.13332,-0.899949 2.6,-1.1 0.46665,-0.266615 1.26665,-0.699948 2.4,-1.3 1.13332,-0.599947 2.03332,-1.099946 2.7,-1.5 0.66665,-0.466612 1.43331,-1.066611 2.3,-1.8 0.86665,-0.733277 1.66664,-1.466609 2.4,-2.2 -2.13335,-2.266606 -3.63335,-3.399938 -4.5,-3.4 l -3.8,2.2 5,-5.9 c 1.99998,-2.599932 2.99998,-4.79993 3,-6.6 1.39998,0.466738 2.53331,0.966737 3.4,1.5 l 0,1.1 c -1.60002,1.466734 -2.73336,2.700067 -3.4,3.7 -2e-5,0.06673 0.16664,0.100065 0.5,0.1 l 6.2,-1.9 c 0.79997,6.7e-5 1.66664,0.8334 2.6,2.5 l -6.1,6.6 c -3e-5,0.200058 0.39997,0.566724 1.2,1.1 0.79997,0.53339 1.89997,1.133389 3.3,1.8 1.46663,0.666721 2.86663,1.233387 4.2,1.7 l 8.6,2.4 c -3.06671,0.866717 -5.1667,1.30005 -6.3,1.3 -1.73337,5e-5 -3.80003,-0.866616 -6.2,-2.6 l -5.7,-4.3 m 2.6,9.1 c -0.40003,0.133381 -0.66669,0.200048 -0.8,0.2 -0.73336,4.8e-5 -1.80003,-0.633285 -3.2,-1.9 l -2.9,-2.5 c 0.73331,5.2e-5 1.33331,5.2e-5 1.8,0 0.46664,5.2e-5 0.76664,5.2e-5 0.9,0 0.19998,5.2e-5 0.33331,5.2e-5 0.4,0 0.66664,5.2e-5 1.46664,0.433385 2.4,1.3 0.93331,0.80005 1.39997,1.400049 1.4,1.8 l 0,1.1 m 0.9,7.3999997 c -0.33336,0.40004 -0.80003,0.60004 -1.4,0.6 -0.80003,4e-5 -2.23336,-0.833293 -4.3,-2.5 l -3.6,-2.9999997 c 0.79998,4.5e-5 1.43331,4.5e-5 1.9,0 0.53331,4.5e-5 0.89998,4.5e-5 1.1,0 0.19998,4.5e-5 0.29998,4.5e-5 0.3,0 0.99998,4.5e-5 2.46664,0.6333777 4.4,1.8999997 0.86664,0.666709 1.39997,1.666708 1.6,3 m -0.9,-24.3999997 c -1.73336,0.200065 -2.83336,0.300064 -3.3,0.3 -0.93336,6.4e-5 -1.73336,-0.166602 -2.4,-0.5 -0.86669,0.800064 -1.70002,1.733397 -2.5,2.8 0.99998,0.466728 1.79998,0.900061 2.4,1.3 l 2.3,1.4 c 0.99997,-1.133273 2.16664,-2.899938 3.5,-5.3"/>
    <path fill="#10106c" stroke="none" transform="translate(430.18095,443.11475)" d="m 197.779,75.792674 -1.9,2.8 -7.4,-4.4 0.3,8.1 -2.3,-0.8 -0.7,-9 -10.4,-6.2 0,12.3 7.9,5.2 -1,2.3 -6.9,-4.6 0.1,8.9 -2.9,0 0.1,-8.9 -6.9,4.6 -1,-2.3 7.9,-5.2 0,-12.3 -10.4,6.2 -0.7,9 -2.3,0.8 0.3,-8.1 -7.4,4.4 -1.8,-2.8 7.6,-4.3 -7.3,-3.5 1.5,-2.1 8.4,4.1 11.1,-6.2 -11.1,-6.1 -8.4,4 -1.5,-2.1 7.3,-3.4 -7.6,-4.4 1.8,-2.7 7.4,4.4 -0.3,-8.2 2.3,0.7 0.7,9.2 10.4,6.2 0,-12.3 -7.9,-5.4 1,-2.2 6.9,4.5 -0.1,-8.8 2.9,0 -0.1,8.8 6.9,-4.5 1,2.2 -7.9,5.4 0,12.3 10.4,-6.2 0.7,-9.2 2.3,-0.7 -0.3,8.2 7.4,-4.4 1.9,2.7 -7.6,4.4 7.2,3.4 -1.5,2.1 -8.5,-4 -11,6.1 11,6.2 8.5,-4.1 1.5,2.1 -7.2,3.5 7.6,4.3"/>
  </g>
</svg>